Coordinates
version=1
nRows=17
nColumns=40
inDegrees=yes

Units are S.I. units (second, meters, Newtons, ...)
Angles are in degrees.

endheader
time	pelvis_tilt	pelvis_list	pelvis_rotation	pelvis_tx	pelvis_ty	pelvis_tz	hip_flexion_r	hip_adduction_r	hip_rotation_r	knee_angle_r	knee_angle_r_beta	ankle_angle_r	subtalar_angle_r	mtp_angle_r	hip_flexion_l	hip_adduction_l	hip_rotation_l	knee_angle_l	knee_angle_l_beta	ankle_angle_l	subtalar_angle_l	mtp_angle_l	lumbar_extension	lumbar_bending	lumbar_rotation	arm_flex_r	arm_add_r	arm_rot_r	elbow_flex_r	pro_sup_r	wrist_flex_r	wrist_dev_r	arm_flex_l	arm_add_l	arm_rot_l	elbow_flex_l	pro_sup_l	wrist_flex_l	wrist_dev_l
     37.49800000	     -2.89997422	     -5.54890700	     -2.81757589	      1.09969429	      0.93607469	      0.44920409	     29.18696768	     -4.69642927	     -6.03580454	     42.65148313	     42.65148313	      2.44873386	    -10.75067427	     -0.38679813	      9.71920940	     -6.12032420	    -10.21403926	     19.84967376	     19.84967376	     14.99751282	     -6.95126522	     -2.86487412	    -10.85536159	      4.39576687	     -1.17683288	     -0.29972798	    -15.77462009	    -11.99804301	     25.47418768	     47.35894576	      0.00000000	      0.00000000	     16.09744671	    -14.99884785	     -0.09287688	     47.90838893	     46.12065095	      0.00000000	      0.00000000
     37.51100000	     -3.15000190	     -5.50110521	     -3.15951948	      1.09889816	      0.93576782	      0.45016464	     29.13025561	     -4.36812345	     -6.06127684	     39.09309879	     39.09309879	      2.51529671	     -9.67148860	      0.01677644	      9.42120885	     -6.09987399	    -10.47802067	     19.48268039	     19.48268039	     15.12668425	     -6.96660100	     -2.87373382	    -10.73538613	      4.19206750	     -1.29696273	     -0.72538920	    -15.89068296	    -12.14317310	     25.37522764	     47.36653416	      0.00000000	      0.00000000	     16.58427038	    -15.13529463	     -0.16747011	     48.18972467	     46.13911012	      0.00000000	      0.00000000
     37.52400000	     -3.16928227	     -5.39790976	     -3.48992822	      1.09836104	      0.93569380	      0.45108511	     28.67994958	     -4.17044150	     -6.32737725	     35.35642483	     35.35642483	      2.48872579	     -7.87490099	     -0.32716584	      8.75231327	     -5.98591887	    -10.81684715	     18.90847683	     18.90847683	     15.11881310	     -6.89761458	     -3.20318336	    -10.93376699	      3.97125104	     -1.06997398	     -1.52204281	    -16.01662908	    -13.18823450	     25.92043171	     47.37980688	      0.00000000	      0.00000000	     17.16628453	    -15.01488571	     -0.36824752	     48.78752640	     46.19738732	      0.00000000	      0.00000000
     37.53700000	     -3.44882684	     -5.37089336	     -3.78309720	      1.09771930	      0.93520060	      0.45219928	     28.43989239	     -3.76187852	     -6.48902442	     31.56465080	     31.56465080	      2.47588932	     -6.28885670	      0.11638746	      8.50776581	     -5.99902500	    -11.04744856	     18.58307782	     18.58307782	     15.24739896	     -6.91130583	     -3.28860108	    -10.77088501	      3.90064592	     -1.19422414	     -1.87591303	    -16.07848726	    -13.35198539	     25.93582645	     47.38145812	      0.00000000	      0.00000000	     17.50432514	    -15.09011917	     -0.40940837	     49.02301343	     46.21178155	      0.00000000	      0.00000000
     37.55000000	     -3.66282747	     -5.29561953	     -4.09056445	      1.09720785	      0.93470005	      0.45348265	     28.07840660	     -3.39542713	     -6.75121507	     27.80871956	     27.80871956	      2.46731785	     -4.19826586	      0.53951067	      8.15434315	     -5.96454987	    -11.32583666	     18.20811179	     18.20811179	     15.36135052	     -6.85285333	     -3.40929588	    -10.67923125	      3.74510592	     -1.21046281	     -2.23286272	    -16.07768754	    -13.51364477	     26.01555537	     47.37987807	      0.00000000	      0.00000000	     17.85020939	    -15.13253404	     -0.47648715	     49.32169800	     46.22904128	      0.00000000	      0.00000000
     37.56300000	     -3.71124818	     -5.13746604	     -4.38748990	      1.09690199	      0.93434083	      0.45477664	     27.49735956	     -3.19066144	     -7.34835932	     24.18067260	     24.18067260	      2.47995508	     -1.29406985	      0.94282021	      7.56833449	     -5.82250219	    -11.69045961	     17.75201894	     17.75201894	     15.43235450	     -6.69697661	     -3.69438393	    -10.81108445	      3.48025659	     -1.12661195	     -2.66570854	    -16.10312358	    -13.84947531	     26.34865995	     47.37259010	      0.00000000	      0.00000000	     18.22781625	    -15.12658331	     -0.61474361	     49.71775587	     46.25821083	      0.00000000	      0.00000000
     37.57600000	     -3.91879229	     -5.04783800	     -4.65148893	      1.09667488	      0.93370351	      0.45626528	     27.04094045	     -2.80176729	     -7.82732154	     20.70060825	     20.70060825	      2.31493511	      1.10669436	      1.68517210	      7.17970464	     -5.77792674	    -11.96429718	     17.34529497	     17.34529497	     15.53005595	     -6.61081996	     -3.94206309	    -10.70668736	      3.36016044	     -1.11669178	     -3.02191990	    -16.04442310	    -14.07976893	     26.59169105	     47.36546887	      0.00000000	      0.00000000	     18.45272503	    -15.10570044	     -0.70137295	     49.97552481	     46.27708430	      0.00000000	      0.00000000
     37.58900000	     -4.02420919	     -4.84478525	     -4.90608342	      1.09667966	      0.93306262	      0.45780835	     26.61977904	     -2.63877092	     -8.75060959	     17.83863265	     17.83863265	      2.56449469	      4.22644980	      3.15706490	      6.59789614	     -5.59210678	    -12.31944126	     16.78018930	     16.78018930	     15.43653547	     -6.47461084	     -4.67136604	    -10.68877892	      3.09155704	     -0.97121487	     -3.56016644	    -15.88872961	    -14.77626827	     27.40926690	     47.34064431	      0.00000000	      0.00000000	     18.69121788	    -14.98683546	     -0.92653826	     50.27677521	     46.32208876	      0.00000000	      0.00000000
     37.60200000	     -4.12463329	     -4.71561471	     -5.13603588	      1.09682958	      0.93245908	      0.45952734	     26.14470932	     -2.29194990	     -9.40129077	     15.23673423	     15.23673423	      2.56686621	      6.39051696	      4.57069577	      6.01712894	     -5.49080012	    -12.62733695	     16.26050189	     16.26050189	     15.46498243	     -6.32185015	     -5.08002364	    -10.68223946	      2.92641996	     -0.89143950	     -3.81789933	    -15.73133458	    -15.10738602	     27.71356356	     47.32589982	      0.00000000	      0.00000000	     18.86616234	    -14.93577796	     -1.00381519	     50.40600957	     46.34359910	      0.00000000	      0.00000000
     37.61500000	     -4.34850785	     -4.54227074	     -5.34317431	      1.09711542	      0.93154555	      0.46134677	     25.89937660	     -1.95542281	     -9.81200160	     13.19806969	     13.19806969	      2.40921812	      7.65372186	      5.39115580	      5.63660190	     -5.36318890	    -12.86318010	     15.88039141	     15.88039141	     15.61025079	     -6.21401030	     -5.27560912	    -10.44810027	      2.76636411	     -0.86526865	     -3.94761236	    -15.55170166	    -15.19502549	     27.81070303	     47.31860881	      0.00000000	      0.00000000	     18.90583543	    -14.91019410	     -1.02606982	     50.46953580	     46.35049419	      0.00000000	      0.00000000
     37.62800000	     -4.37534199	     -4.47114516	     -5.50612163	      1.09774586	      0.93097557	      0.46327125	     25.40411003	     -1.58967718	    -10.56576829	     11.61003946	     11.61003946	      2.35088071	      8.94069249	      6.27010794	      4.91958056	     -5.31951959	    -13.13773046	     15.31785517	     15.31785517	     15.74070173	     -5.95737743	     -5.52917317	    -10.44357331	      2.70544732	     -0.82295718	     -4.01461263	    -15.40994463	    -15.30282798	     27.97667427	     47.30870797	      0.00000000	      0.00000000	     18.89315493	    -14.84122285	     -1.05769381	     50.51013819	     46.35773623	      0.00000000	      0.00000000
     37.64100000	     -4.50507655	     -4.31850069	     -5.64592085	      1.09832639	      0.92985579	      0.46527144	     25.53936316	     -1.37615889	    -10.93269812	     11.42272298	     11.42272298	      2.48192723	      8.83830322	      6.29623434	      4.59080002	     -5.24463303	    -13.26165198	     15.26481732	     15.26481732	     16.05745773	     -6.05699695	     -5.64104390	    -10.31073679	      2.56367983	     -0.80961159	     -3.98410030	    -15.34370871	    -15.30201139	     28.00565244	     47.30681290	      0.00000000	      0.00000000	     18.88462429	    -14.81332799	     -1.05357015	     50.51192733	     46.35757453	      0.00000000	      0.00000000
     37.65400000	     -4.42452155	     -4.30050831	     -5.79085014	      1.09964224	      0.92961283	      0.46728315	     24.80343423	     -1.09682435	    -12.19193788	     10.59881335	     10.59881335	      2.79936208	     10.29392178	      7.99534816	      3.42282005	     -5.19350840	    -13.67714626	     14.11118075	     14.11118075	     15.75461120	     -5.44766764	     -6.69726537	    -10.30912156	      2.63264220	     -0.70668245	     -4.11680954	    -15.02370463	    -15.68209080	     28.68829849	     47.25756906	      0.00000000	      0.00000000	     18.67132732	    -14.58610456	     -1.31740199	     50.42246923	     46.39716190	      0.00000000	      0.00000000
     37.66700000	     -4.52498663	     -4.27242341	     -5.85648461	      1.10080764	      0.92867533	      0.46939139	     24.59768137	     -0.83341689	    -12.72675798	     10.71636492	     10.71636492	      2.77915969	      9.86865908	      7.97840392	      2.95598893	     -5.23700072	    -13.70582440	     13.92534450	     13.92534450	     16.03374335	     -5.46117917	     -6.76369665	    -10.12054221	      2.70516169	     -0.62734622	     -4.01933898	    -14.80665560	    -15.66097178	     28.75028872	     47.25108984	      0.00000000	      0.00000000	     18.42479468	    -14.44027631	     -1.28056117	     50.32819034	     46.39133198	      0.00000000	      0.00000000
     37.68000000	     -4.40695372	     -4.22791109	     -5.91806664	      1.10245015	      0.92803549	      0.47151113	     24.18847154	     -0.63437748	    -12.90021385	     11.23805494	     11.23805494	      2.77979598	      8.87192152	      7.48080696	      1.96064793	     -5.17601041	    -13.87577204	     13.23075980	     13.23075980	     16.22726789	     -5.14884628	     -6.76012836	    -10.10851505	      2.78454386	     -0.73287871	     -3.79155518	    -14.65509416	    -15.66032012	     28.98310289	     47.23058364	      0.00000000	      0.00000000	     18.09892078	    -14.40058295	     -1.31075287	     50.03583416	     46.39180716	      0.00000000	      0.00000000
     37.69300000	     -4.37224924	     -4.18501837	     -5.92154409	      1.10419732	      0.92712938	      0.47368573	     23.89535120	     -0.46610598	    -12.87523286	     12.00614813	     12.00614813	      2.52225494	      7.45752940	      6.23080167	      1.22581741	     -5.17086633	    -13.93333544	     12.86300307	     12.86300307	     16.53179069	     -4.97060136	     -6.72363186	     -9.98273607	      2.89762907	     -0.77916980	     -3.61687313	    -14.45771344	    -15.57844947	     29.24286792	     47.19486956	      0.00000000	      0.00000000	     17.71222534	    -14.26270752	     -1.40465634	     49.69256876	     46.39883493	      0.00000000	      0.00000000
     37.70600000	     -4.23861944	     -4.22259890	     -5.88234624	      1.10617457	      0.92625183	      0.47588785	     23.53788463	     -0.31144106	    -12.92648010	     13.03770344	     13.03770344	      2.45667225	      6.24490668	      5.24905269	      0.47847873	     -5.27451387	    -13.91897614	     12.72236492	     12.72236492	     16.91568600	     -4.89204958	     -6.62310260	     -9.94127023	      3.10469037	     -0.80721909	     -3.38935687	    -14.35681490	    -15.49441647	     29.45139869	     47.17086886	      0.00000000	      0.00000000	     17.31480178	    -14.10946673	     -1.43407919	     49.38146072	     46.39717086	      0.00000000	      0.00000000
